#!OML:ASF E:/inclinewalkrobotboard/Project1/Captureday1/Session1/subject1.ASF
:FULLY-SPECIFIED
:DEGREES
176
root 0 0 0 1.1080278236585697 -3.740146121998999 1.802842275342774
lowerback 11.995271970657408 0.8620096968118637 -0.07695244333869089
upperback -4.182588126758737 1.0910308363555192 -0.5396427055548442
thorax -11.297415709460857 0.5003882403629207 -0.7746341896016924
lowerneck -5.922303230419946 1.4701737567296382 4.520564261637469
upperneck 18.041122883244125 2.915530692338504 -8.266385314083998
head 6.615945179701308 1.0617491385603623 -3.1943101760729564
rclavicle -1.2284168968230009E-15 3.966712347730783E-16
rhumerus 19.64156195341894 14.047555492124733 -47.80807543701148
rradius 72.07069464285016
rwrist 27.218726844303944
rhand -34.8833246066507 -57.528939181630506
rfingers 7.125020000000043
rthumb -8.024838631771159 -87.30846405523863
lclavicle 1.0816549204779034E-15 -2.7189014114231917E-15
lhumerus 20.59916579177756 -12.31318824535645 45.617203133667076
lradius 69.53474478944288
lwrist -22.203905185815266
lhand -44.756875370243016 -70.15150046176491
lfingers 7.125020000000015
lthumb -17.56469754056068 -41.04488004967553
rfemur -25.19092125248686 -2.162428928373897 16.89649021038756
rtibia 54.19822517880186
rfoot -28.226717418516298 -16.764422388899888
rtoes -17.85513079440379
lfemur -27.442728266368174 2.482262953263575 -18.264880949620704
ltibia 53.661444886457744
lfoot -31.885719161100486 -3.253064664018327
ltoes -19.563979716360322
177
root 0 0 0 1.1079922743027797 -3.7401643487142056 1.8028370312254343
lowerback 11.995299038079837 0.8620103258720045 -0.07693810783200777
upperback -4.182548100097806 1.0910352447800429 -0.5396335870664457
thorax -11.297386988703444 0.5003896768638537 -0.7746339594188478
lowerneck -5.922194869119803 1.470144704274729 4.520601380322514
upperneck 18.040974870778655 2.9154922593218178 -8.266467978282622
head 6.615878908911932 1.0617320877096466 -3.1943450490730942
rclavicle -1.2339131599472528E-15 3.991238547204804E-16
rhumerus 19.641337437627897 14.04736223919198 -47.80817475373493
rradius 72.07055006680065
rwrist 27.21871603509316
rhand -34.883342202153 -57.52891512045368
rfingers 7.125020000000043
rthumb -8.024845087617328 -87.30846831115628
lclavicle 1.073507938529144E-15 -2.7157062550471798E-15
lhumerus 20.599410993438834 -12.31355536566432 45.61705266778068
lradius 69.53483703205069
lwrist -22.20384824776925
lhand -44.75679932450018 -70.15036010675142
lfingers 7.125020000000015
lthumb -17.564606557149407 -41.04374796110922
rfemur -25.19118005726666 -2.1624503551427443 16.89646707873321
rtibia 54.19814577194057
rfoot -28.226821995859588 -16.764542648168366
rtoes -17.85486042709081
lfemur -27.442763526844764 2.482334331931997 -18.26494912735474
ltibia 53.6616921068399
lfoot -31.88587482805837 -3.2530059736101604
ltoes -19.563636577676164
178
root 0 0 0 1.107954300661977 -3.7401876455292506 1.8028307238427461
lowerback 11.99532142483258 0.8620099831743369 -0.07692249122175895
upperback -4.182508689476938 1.0910386158965206 -0.5396234402034599
thorax -11.297356067075501 0.5003905675581869 -0.7746330857102333
lowerneck -5.922074306587511 1.4701151227225808 4.52063903248632
upperneck 18.040826812377286 2.915453733860902 -8.266553148382732
head 6.615810558286563 1.0617150967281463 -3.1943809314752296
rclavicle -1.2351108990231955E-15 3.992120575448891E-16
rhumerus 19.641357758523295 14.047387596748813 -47.808178192580236
rradius 72.07058566430638
rwrist 27.218737662926397
rhand -34.883389251402924 -57.52904743369824
rfingers 7.125020000000043
rthumb -8.024894298948448 -87.30860398687177
lclavicle 1.0715895608058198E-15 -2.715637777502029E-15
lhumerus 20.599492486217628 -12.313587026393533 45.61699709528095
lradius 69.53488076581664
lwrist -22.203872413389607
lhand -44.75682025722799 -70.15034298491676
lfingers 7.125020000000015
lthumb -17.56461654172137 -41.04372761351284
rfemur -25.191157046605344 -2.162444491260786 16.89648511193632
rtibia 54.19812264475818
rfoot -28.226904763958505 -16.764581293021504
rtoes -17.85486039929819
lfemur -27.442830993023826 2.4823201061651234 -18.26493706185112
ltibia 53.66165866853086
lfoot -31.88598728576695 -3.252927142733136
ltoes -19.56370452101813
179
root 0 0 0 1.1327364110817864 -3.7098728467810282 1.810419521418829
lowerback 11.989958590346353 0.8612183666654208 -0.0889621346306246
upperback -4.200686358510444 1.0876561415577721 -0.5459126916536903
thorax -11.314640423801483 0.4990789524370326 -0.7740848228022497
lowerneck -5.987267712637139 1.482510598382615 4.499003243047346
upperneck 18.106031202482686 2.9298337389844327 -8.219520540473113
head 6.648100395950076 1.0682189296845606 -3.1748504305311656
rclavicle -1.6056720764733626E-15 4.3716323671493223E-16
rhumerus 19.538558270366686 13.954310421844198 -47.82383541946403
rradius 71.97346418714207
rwrist 27.205802366832508
rhand -34.82929262487913 -57.369653525176155
rfingers 7.125020000000042
rthumb -7.973074881252829 -87.16116669554508
lclavicle 4.569372933450061E-16 -2.4805293264127286E-15
lhumerus 20.529170339454225 -12.311376686570839 45.67543527347233
lradius 69.46688686993755
lwrist -22.137688435600257
lhand -44.72077445117714 -69.89517133186166
lfingers 7.125020000000015
lthumb -17.527603596335997 -40.792391069224436
rfemur -25.1702386094387 -2.156838129297341 16.882801109069113
rtibia 54.163329761666986
rfoot -28.156997730612154 -16.739291992097414
rtoes -17.90160655595611
lfemur -27.334943928902234 2.4714021583666317 -18.273259505472865
ltibia 53.579631302105916
lfoot -31.703250390661808 -3.3152038152204493
ltoes -19.53990339534927
